<svg width="512" height="512" viewBox="0 0 512 512" xmlns="http://www.w3.org/2000/svg">
  <defs>
    <linearGradient id="bg" x1="0" y1="0" x2="1" y2="1">
      <stop offset="0" stop-color="#1E3050"/>
      <stop offset="0.55" stop-color="#16243D"/>
      <stop offset="1" stop-color="#0E1930"/>
    </linearGradient>
    <radialGradient id="glow" cx="0.92" cy="0.08" r="0.9">
      <stop offset="0" stop-color="#C7A24E" stop-opacity="0.30"/>
      <stop offset="0.55" stop-color="#C7A24E" stop-opacity="0"/>
    </radialGradient>
    <clipPath id="round"><rect width="512" height="512" rx="112"/></clipPath>
  </defs>

  <g clip-path="url(#round)">
    <rect width="512" height="512" fill="url(#bg)"/>
    <rect width="512" height="512" fill="url(#glow)"/>

    <g transform="rotate(-10 256 252)">
      <rect x="152" y="132" width="208" height="236" rx="28" fill="#C7A24E"/>
    </g>

    <g transform="rotate(5 256 252)">
      <rect x="146" y="128" width="210" height="238" rx="28" fill="#FFFFFF"/>
      <rect x="178" y="172" width="118" height="18" rx="9" fill="#16243D" opacity="0.85"/>
      <rect x="178" y="210" width="146" height="14" rx="7" fill="#16243D" opacity="0.16"/>
      <rect x="178" y="238" width="146" height="14" rx="7" fill="#16243D" opacity="0.16"/>
      <rect x="178" y="266" width="104" height="14" rx="7" fill="#16243D" opacity="0.16"/>
      <rect x="178" y="304" width="120" height="20" rx="10" fill="#118A6B"/>
    </g>

    <circle cx="356" cy="360" r="54" fill="#D8B25C" stroke="#0E1930" stroke-width="12"/>
    <circle cx="356" cy="360" r="40" fill="none" stroke="#0E1930" stroke-width="5" opacity="0.22"/>
    <path d="M356 335 v50 M341 349 h30 M341 361 h30" stroke="#0E1930" stroke-width="7" stroke-linecap="round" opacity="0.55" fill="none"/>
  </g>
</svg>
